<svg width="63" height="59" viewBox="0 0 63 59" fill="none" xmlns="http://www.w3.org/2000/svg">
<path d="M29.01 15.7148H7.27493C6.654 15.7407 6.06765 16.0053 5.64226 16.452C5.21724 16.8986 4.98676 17.4915 5.00059 18.1034V50.4472L7.93253 47.7603C8.17579 47.5665 8.47883 47.4603 8.79154 47.4603C9.10425 47.4603 9.40763 47.5661 9.65089 47.76L13.4926 51.1435L17.2835 47.76C17.7683 47.3175 18.5174 47.3175 19.0022 47.76L22.7931 51.1435L26.6349 47.76C26.8736 47.5569 27.1787 47.4454 27.4942 47.4454C27.8097 47.4454 28.1148 47.5569 28.3536 47.76L31.2852 50.4472V18.1034C31.299 17.4915 31.0685 16.8986 30.6431 16.452C30.2181 16.0053 29.6312 15.7407 29.01 15.7148ZM14.6541 23.1292L18.142 19.4967L21.6299 23.1292C22.5542 24.0901 23.0691 25.3633 23.0691 26.6868C23.0691 28.0103 22.5543 29.2835 21.6299 30.2448C20.7115 31.1618 19.4499 31.6659 18.142 31.638C16.8318 31.6782 15.5653 31.1724 14.6541 30.2448C13.7298 29.2835 13.2146 28.0103 13.2146 26.6868C13.2146 25.3633 13.7298 24.0901 14.6541 23.1292ZM9.85216 35.1208H18.3441C18.7629 35.1208 19.1023 35.4549 19.1023 35.8671C19.1023 36.2794 18.7629 36.6134 18.3441 36.6134H9.85216C9.43336 36.6134 9.09404 36.2794 9.09404 35.8671C9.09404 35.4549 9.43336 35.1208 9.85216 35.1208ZM26.4319 44.575H9.85216C9.43336 44.575 9.09404 44.241 9.09404 43.8287C9.09404 43.4165 9.43336 43.0821 9.85216 43.0821H26.4319C26.8507 43.0821 27.19 43.4165 27.19 43.8287C27.19 44.241 26.8507 44.575 26.4319 44.575ZM26.4319 40.5942H9.85216C9.43336 40.5942 9.09404 40.2602 9.09404 39.8479C9.09404 39.4356 9.43336 39.1016 9.85216 39.1016H26.4319C26.8507 39.1016 27.19 39.4356 27.19 39.8479C27.19 40.2602 26.8507 40.5942 26.4319 40.5942Z" fill="#4BD3D3"/>
<path d="M18.1429 29.9948C19.0462 30.0485 19.926 29.6968 20.5376 29.0375C21.2012 28.3527 21.5715 27.441 21.5715 26.4927C21.5715 25.5443 21.2012 24.6329 20.5376 23.9481L18.1429 21.4287L15.7482 23.9481H15.7479C15.0846 24.6329 14.7144 25.5444 14.7144 26.4927C14.7144 27.441 15.0846 28.3528 15.7479 29.0375C16.3599 29.6969 17.2397 30.0486 18.1429 29.9948H18.1429Z" fill="#4BD3D3"/>
<path d="M34.7742 10.0004H13.511C12.2748 10.0004 11.2856 10.8085 11.2856 12.0718V14.0419H28.8407C29.8379 14.0809 30.7814 14.5132 31.4727 15.2481C32.1643 15.983 32.5503 16.9628 32.5496 17.9822V42.0787C32.7809 41.9057 33.0625 41.8166 33.3491 41.8256C33.6361 41.8349 33.9116 41.9416 34.132 42.1295L37 44.8572V12.0713C37 10.8081 36.0112 10 34.775 10L34.7742 10.0004Z" fill="black"/>
<mask id="mask0_833_217" style="mask-type:alpha" maskUnits="userSpaceOnUse" x="0" y="0" width="63" height="59">
<rect width="63" height="59" fill="#D9D9D9"/>
</mask>
<g mask="url(#mask0_833_217)">
</g>
</svg>
