<svg width="56" height="52" viewBox="0 0 56 52" fill="none" xmlns="http://www.w3.org/2000/svg">
<path d="M47.7586 32.333H7.24138C6.38184 32.333 5.55734 32.6747 4.94926 33.2829C4.3415 33.8915 4 34.7165 4 35.5766V36.3875C4 37.2477 4.3415 38.0727 4.94926 38.6812C5.55738 39.2894 6.38186 39.6311 7.24138 39.6311V46.1184C7.24138 46.9785 7.58288 47.8036 8.19064 48.4121C8.79876 49.0203 9.62324 49.362 10.4828 49.362H44.5172C45.3768 49.362 46.2013 49.0203 46.8094 48.4121C47.4171 47.8035 47.7586 46.9785 47.7586 46.1184V39.6311C48.6182 39.6311 49.4427 39.2894 50.0507 38.6812C50.6585 38.0727 51 37.2476 51 36.3875V35.5766C51 34.7165 50.6585 33.8914 50.0507 33.2829C49.4426 32.6747 48.6181 32.333 47.7586 32.333Z" fill="black"/>
<path d="M29.2029 27.2244C29.2029 28.1648 28.4404 28.9273 27.5 28.9273C26.5596 28.9273 25.7971 28.1648 25.7971 27.2244C25.7971 26.284 26.5596 25.5215 27.5 25.5215C28.4404 25.5215 29.2029 26.284 29.2029 27.2244Z" fill="black"/>
<path d="M18.1338 29.6087H20.447C20.8641 29.6091 21.2577 29.415 21.5137 29.0826C21.7697 28.7502 21.86 28.3172 21.7574 27.909L21.1345 25.4085V25.4081C20.9951 24.8467 21.1197 24.2516 21.4718 23.7949C21.8242 23.3381 22.3655 23.0714 22.9386 23.0711H32.7422C33.3153 23.0714 33.8566 23.3381 34.209 23.7949C34.5611 24.2517 34.6856 24.8467 34.5462 25.4081L33.9233 27.9086V27.909C33.8208 28.3172 33.9111 28.7503 34.1671 29.0826C34.4231 29.415 34.8167 29.6091 35.2338 29.6087H37.547C38.3898 29.6091 39.1998 29.2771 39.8039 28.6831C40.4084 28.0895 40.7594 27.2811 40.7825 26.4296C40.7825 20.5536 37.0212 16.0588 31.7714 14.4571C31.2532 14.3002 30.8134 13.9496 30.5422 13.4764C32.343 12.6392 33.6643 11.0139 34.128 9.06635C34.5916 7.11886 34.146 5.06451 32.919 3.49144C31.692 1.91837 29.8189 1 27.8365 1C25.854 1 23.981 1.91827 22.754 3.49144C21.527 5.06461 21.0813 7.11895 21.545 9.06635C22.0083 11.0139 23.33 12.6391 25.1308 13.4764C24.8592 13.9496 24.4198 14.3002 23.9012 14.4571C18.6598 16.059 14.8984 20.5537 14.8984 26.4296C14.9215 27.2811 15.2725 28.0895 15.877 28.6831C16.4812 29.2771 17.2911 29.6091 18.1339 29.6087H18.1338Z" fill="#4BD3D3"/>
<mask id="mask0_833_213" style="mask-type:alpha" maskUnits="userSpaceOnUse" x="0" y="0" width="56" height="52">
<rect width="56" height="52" fill="#D9D9D9"/>
</mask>
<g mask="url(#mask0_833_213)">
</g>
</svg>
