<svg width="83" height="70" viewBox="0 0 83 70" fill="none" xmlns="http://www.w3.org/2000/svg">
<path d="M5.20083 16.3378C3.72273 17.0587 3.00071 17.8494 3.00071 18.7086V21.081C3.00071 21.9403 3.72273 22.7309 5.20083 23.4525C6.67894 24.1745 8.67212 24.7589 11.2163 25.1714C13.7599 25.584 16.5097 25.7903 19.5004 25.7903C22.491 25.7903 25.2409 25.584 27.7844 25.1714C30.3285 24.7589 32.3219 24.1745 33.7999 23.4525C35.278 22.7304 36 21.9403 36 21.0805V18.7091C36 17.8498 35.278 17.0587 33.7999 16.3372C32.3218 15.6151 30.3286 15.0308 27.7844 14.6187C25.2408 14.2063 22.4915 14 19.5004 14C16.5096 14 13.7599 14.2063 11.2163 14.6189C8.70672 15.0656 6.67882 15.6154 5.20083 16.3374M3.00071 32.2192V35.2096C3.00071 36.0693 3.72273 36.8599 5.20083 37.582C6.67894 38.304 8.67212 38.8879 11.2163 39.3005C13.7599 39.713 16.5097 39.9193 19.5004 39.9193C22.491 39.9193 25.2409 39.713 27.7844 39.3005C30.3285 38.8879 32.3219 38.3035 33.7999 37.5815C35.278 36.8594 36 36.0693 36 35.2096V32.0815C34.2815 33.113 31.9783 33.9036 29.022 34.4189C26.0654 34.9692 22.9035 35.2093 19.5002 35.2093C16.097 35.2093 12.9349 34.9689 9.97842 34.4187C7.02221 33.9029 4.71894 33.1128 3.00047 32.0813M3.00047 39.0936V42.2907C3.00047 43.1499 3.72249 43.941 5.2006 44.6626C6.6787 45.3846 8.67189 45.969 11.2161 46.3811C13.7597 46.7937 16.5094 47 19.5001 47C22.4908 47 25.2406 46.7937 27.7842 46.3811C30.3283 45.9685 32.3217 45.3846 33.7996 44.6626C35.2777 43.9406 35.9998 43.1499 35.9998 42.2902V39.1622C34.2813 40.1937 31.978 40.9843 29.0218 41.5C26.0656 42.0158 22.9032 42.2907 19.5 42.2907C16.0968 42.2907 12.9346 42.0158 9.97818 41.5C7.02197 40.9843 4.7187 40.1937 3.00024 39.1622M3.00024 25.0003V28.1278C3.00024 28.9871 3.72226 29.7782 5.20036 30.4998C6.67847 31.2218 8.67165 31.8061 11.2158 32.2187C13.7594 32.6313 16.5092 32.8376 19.4999 32.8376C22.4906 32.8376 25.2404 32.6313 27.7839 32.2187C30.3281 31.8061 32.3214 31.2218 33.7994 30.4998C35.2775 29.7777 35.9995 28.9871 35.9995 28.1278V24.9998C34.2811 26.0313 31.9778 26.8215 29.0216 27.3372C26.0654 27.8529 22.903 28.1278 19.4998 28.1278C16.0965 28.1278 12.9344 27.8529 9.97795 27.3372C7.02174 26.8215 4.71847 26.0308 3 24.9998" fill="#4BD3D3"/>
<path d="M36.4239 48.3523C36.6112 48.8505 36.9866 49.252 37.4671 49.4666L39.8438 50.5381C40.3228 50.7537 40.8667 50.7668 41.3557 50.5749C41.8446 50.3834 42.2384 50.0021 42.4514 49.5155L42.8764 48.5407C44.0088 48.7286 45.161 48.7568 46.3008 48.6243L46.6788 49.6213H46.6793C46.867 50.119 47.2425 50.5205 47.722 50.7366C48.2015 50.9527 48.7459 50.9663 49.2348 50.7734L51.6601 49.8223H51.6596C52.1094 49.6444 52.4789 49.3054 52.6993 48.8687C52.9193 48.4324 52.9748 47.9291 52.8549 47.4541C52.6102 47.4984 52.3625 47.5211 52.1138 47.5231H51.0042C50.8413 47.5226 50.6788 47.513 50.5168 47.4944L50.6347 47.8052L48.6627 48.579L48.0514 46.9685C47.8582 46.4607 47.3366 46.165 46.8105 46.2652C45.3764 46.5418 43.9004 46.506 42.4806 46.1595C41.96 46.0335 41.4255 46.3025 41.208 46.7997L40.521 48.375L38.5886 47.5035L39.2752 45.9282H39.2747C39.4917 45.4305 39.3287 44.8462 38.8868 44.5389C37.6811 43.7022 36.6637 42.614 35.9023 41.3471C35.6225 40.8831 35.0563 40.6882 34.557 40.8842L32.9734 41.5053L32.2125 39.4998L33.7961 38.8782C34.296 38.6822 34.5862 38.1518 34.4877 37.6163C34.2147 36.1578 34.2504 34.6567 34.5917 33.2128C34.7165 32.6834 34.4515 32.1393 33.9621 31.9187L32.4131 31.22L33.2701 29.2549L34.8191 29.9531V29.9526C35.3085 30.1732 35.8831 30.0075 36.1852 29.5581C37.008 28.332 38.078 27.2973 39.3238 26.523C39.78 26.2379 39.9712 25.6626 39.779 25.1549L39.1682 23.5444L41.1402 22.7706L41.7515 24.3811C41.9432 24.8904 42.4658 25.1866 42.9924 25.0843C44.4265 24.8063 45.9026 24.8425 47.3223 25.1901C47.8429 25.3171 48.3784 25.0481 48.5949 24.5498L49.2819 22.9746L51.2143 23.8461L50.5277 25.4213H50.5282C50.3112 25.9191 50.4742 26.5034 50.9161 26.8107C52.1218 27.6474 53.1392 28.7355 53.9006 30.0025C54.1809 30.4664 54.7466 30.6609 55.2459 30.4654L56.8295 29.8443L57.1148 30.5969H59.4935L58.8129 28.802C58.6237 28.3048 58.2487 27.9043 57.7692 27.6882C57.2902 27.4726 56.7468 27.4585 56.2574 27.6499L55.2771 28.0343C54.6083 27.0862 53.8143 26.2364 52.9167 25.5095L53.3418 24.5347L53.3413 24.5352C53.5538 24.0476 53.5676 23.4944 53.3789 22.9972C53.1902 22.5 52.8152 22.099 52.3357 21.8829L49.959 20.8114C49.48 20.5953 48.9361 20.5817 48.4472 20.7736C47.9582 20.9655 47.5639 21.3469 47.3514 21.834L46.9269 22.8088H46.9264C45.7945 22.6204 44.6418 22.5922 43.502 22.7252L43.1241 21.7282H43.1236C42.9353 21.2305 42.5599 20.83 42.0808 20.6139C41.6013 20.3978 41.0574 20.3842 40.568 20.5761L38.1432 21.5272C37.6543 21.7197 37.2605 22.101 37.048 22.5881C36.8355 23.0758 36.8221 23.6284 37.0104 24.1261L37.3883 25.1231C36.4561 25.8032 35.6205 26.6107 34.9056 27.5235L33.9471 27.0917H33.9476C33.4681 26.8756 32.9242 26.8615 32.4353 27.0535C31.9463 27.2454 31.5521 27.6267 31.3395 28.1144L30.2859 30.5314C30.0739 31.0185 30.061 31.5716 30.2493 32.0689C30.438 32.5661 30.813 32.9666 31.2915 33.1832L32.25 33.6154C32.0648 34.7665 32.037 35.9388 32.1678 37.0979L31.1875 37.4823V37.4828C30.6981 37.6742 30.3043 38.056 30.0918 38.5432C29.8792 39.0308 29.8659 39.5839 30.0546 40.0817L30.9898 42.5481V42.5476C31.1791 43.0448 31.5545 43.4448 32.0335 43.6609C32.5125 43.8765 33.056 43.8906 33.5454 43.6997L34.5257 43.3153C35.1944 44.2634 35.9885 45.1132 36.886 45.8401L36.4615 46.8149V46.8144C36.2475 47.3015 36.2341 47.8552 36.4239 48.3524L36.4239 48.3523Z" fill="black"/>
<path d="M36.4239 48.3523C36.6112 48.8505 36.9866 49.252 37.4671 49.4666L39.8438 50.5381C40.3228 50.7537 40.8667 50.7668 41.3557 50.5749C41.8446 50.3834 42.2384 50.0021 42.4514 49.5155L42.8764 48.5407C44.0088 48.7286 45.161 48.7568 46.3008 48.6243L46.6788 49.6213H46.6793C46.867 50.119 47.2425 50.5205 47.722 50.7366C48.2015 50.9527 48.7459 50.9663 49.2348 50.7734L51.6601 49.8223H51.6596C52.1094 49.6444 52.4789 49.3054 52.6993 48.8687C52.9193 48.4324 52.9748 47.9291 52.8549 47.4541C52.6102 47.4984 52.3625 47.5211 52.1138 47.5231H51.0042C50.8413 47.5226 50.6788 47.513 50.5168 47.4944L50.6347 47.8052L48.6627 48.579L48.0514 46.9685C47.8582 46.4607 47.3366 46.165 46.8105 46.2652C45.3764 46.5418 43.9004 46.506 42.4806 46.1595C41.96 46.0335 41.4255 46.3025 41.208 46.7997L40.521 48.375L38.5886 47.5035L39.2752 45.9282H39.2747C39.4917 45.4305 39.3287 44.8462 38.8868 44.5389C37.6811 43.7022 36.6637 42.614 35.9023 41.3471C35.6225 40.8831 35.0563 40.6882 34.557 40.8842L32.9734 41.5053L32.2125 39.4998L33.7961 38.8782C34.296 38.6822 34.5862 38.1518 34.4877 37.6163C34.2147 36.1578 34.2504 34.6567 34.5917 33.2128C34.7165 32.6834 34.4515 32.1393 33.9621 31.9187L32.4131 31.22L33.2701 29.2549L34.8191 29.9531V29.9526C35.3085 30.1732 35.8831 30.0075 36.1852 29.5581C37.008 28.332 38.078 27.2973 39.3238 26.523C39.78 26.2379 39.9712 25.6626 39.779 25.1549L39.1682 23.5444L41.1402 22.7706L41.7515 24.3811C41.9432 24.8904 42.4658 25.1866 42.9924 25.0843C44.4265 24.8063 45.9026 24.8425 47.3223 25.1901C47.8429 25.3171 48.3784 25.0481 48.5949 24.5498L49.2819 22.9746L51.2143 23.8461L50.5277 25.4213H50.5282C50.3112 25.9191 50.4742 26.5034 50.9161 26.8107C52.1218 27.6474 53.1392 28.7355 53.9006 30.0025C54.1809 30.4664 54.7466 30.6609 55.2459 30.4654L56.8295 29.8443L57.1148 30.5969H59.4935L58.8129 28.802C58.6237 28.3048 58.2487 27.9043 57.7692 27.6882C57.2902 27.4726 56.7468 27.4585 56.2574 27.6499L55.2771 28.0343C54.6083 27.0862 53.8143 26.2364 52.9167 25.5095L53.3418 24.5347L53.3413 24.5352C53.5538 24.0476 53.5676 23.4944 53.3789 22.9972C53.1902 22.5 52.8152 22.099 52.3357 21.8829L49.959 20.8114C49.48 20.5953 48.9361 20.5817 48.4472 20.7736C47.9582 20.9655 47.5639 21.3469 47.3514 21.834L46.9269 22.8088H46.9264C45.7945 22.6204 44.6418 22.5922 43.502 22.7252L43.1241 21.7282H43.1236C42.9353 21.2305 42.5599 20.83 42.0808 20.6139C41.6013 20.3978 41.0574 20.3842 40.568 20.5761L38.1432 21.5272C37.6543 21.7197 37.2605 22.101 37.048 22.5881C36.8355 23.0758 36.8221 23.6284 37.0104 24.1261L37.3883 25.1231C36.4561 25.8032 35.6205 26.6107 34.9056 27.5235L33.9471 27.0917H33.9476C33.4681 26.8756 32.9242 26.8615 32.4353 27.0535C31.9463 27.2454 31.5521 27.6267 31.3395 28.1144L30.2859 30.5314C30.0739 31.0185 30.061 31.5716 30.2493 32.0689C30.438 32.5661 30.813 32.9666 31.2915 33.1832L32.25 33.6154C32.0648 34.7665 32.037 35.9388 32.1678 37.0979L31.1875 37.4823V37.4828C30.6981 37.6742 30.3043 38.056 30.0918 38.5432C29.8792 39.0308 29.8659 39.5839 30.0546 40.0817L30.9898 42.5481V42.5476C31.1791 43.0448 31.5545 43.4448 32.0335 43.6609C32.5125 43.8765 33.056 43.8906 33.5454 43.6997L34.5257 43.3153C35.1944 44.2634 35.9885 45.1132 36.886 45.8401L36.4615 46.8149V46.8144C36.2475 47.3015 36.2341 47.8552 36.4239 48.3524L36.4239 48.3523Z" fill="black"/>
<path d="M44.4195 30.7385C44.8864 30.7405 45.3503 30.8067 45.7982 30.9357C46.2585 30.7825 46.7405 30.704 47.2266 30.7035H49.6365C47.8322 28.8604 45.1654 28.1024 42.6393 28.714C40.1127 29.3252 38.1094 31.2144 37.3822 33.6703C36.6544 36.1266 37.3133 38.7777 39.1112 40.6273C40.9085 42.4768 43.5723 43.2443 46.1008 42.6414V41.6324C45.3941 41.4515 44.7422 41.1046 44.2025 40.6209C42.4313 40.5492 40.8295 39.5654 39.9866 38.032C39.1437 36.4987 39.1845 34.6422 40.0942 33.146C41.0034 31.6497 42.6469 30.735 44.4195 30.7385H44.4195Z" fill="black"/>
<path d="M64.782 32.9845H47.328C46.752 32.985 46.1998 33.2214 45.7926 33.6408C45.3858 34.0606 45.1565 34.6299 45.156 35.2237V37.4629C45.1565 38.0567 45.3858 38.626 45.7926 39.0458C46.1998 39.4652 46.752 39.7016 47.328 39.7021H48.414V41.9413C48.4144 42.5351 48.6438 43.1044 49.0505 43.5242C49.4578 43.9436 50.01 44.18 50.5859 44.1805H51.6719C52.2479 44.18 52.8001 43.9436 53.2073 43.5242C53.6141 43.1044 53.8434 42.5351 53.8439 41.9413V39.7021H54.9299V40.2619C54.9148 40.7062 55.0768 41.1376 55.3783 41.4555C55.82 41.8408 56.3979 42.0173 56.9719 41.9418L57.1019 41.9413L58.3178 41.9418C58.8918 42.0183 59.4702 41.8413 59.9114 41.4555C60.2129 41.1376 60.3749 40.7062 60.3598 40.2619V39.7021H63.8912C64.5666 42.4046 66.4249 44.6283 68.9173 45.7175C71.4097 46.8066 74.2517 46.6362 76.605 45.2566C78.9578 43.8767 80.5532 41.446 80.9199 38.6809C81.2869 35.9155 80.3827 33.1325 78.4755 31.1521C76.5677 29.1723 73.8741 28.2212 71.1897 28.5805C68.5052 28.9399 66.136 30.5678 64.782 32.9845ZM66.4168 34.5855C67.3176 32.6282 69.0789 31.2397 71.1471 30.8559C73.2148 30.472 75.3354 31.1403 76.8417 32.6502C78.3486 34.1602 79.0559 36.3263 78.7418 38.4686C78.4281 40.6103 77.1312 42.4647 75.2593 43.4484C73.3874 44.4321 71.1699 44.4245 69.3044 43.4279C67.4388 42.4312 66.154 40.5678 65.8539 38.4242C65.7778 37.8724 65.3196 37.4631 64.7791 37.4631H59.2736C58.6738 37.4631 58.1876 37.9644 58.1876 38.5827V39.7023H57.1016V38.5827C57.1016 37.9644 56.6153 37.4631 56.0156 37.4631H52.7576C52.1579 37.4631 51.6716 37.9644 51.6716 38.5827V41.9415H50.5857V38.5827C50.5857 37.9644 50.0994 37.4631 49.4997 37.4631H47.3277V35.2239H65.437C65.8559 35.2239 66.2369 34.9753 66.4168 34.5855Z" fill="#4BD3D3"/>
<path d="M76.5196 37.467C76.5196 38.457 75.9179 39.2592 75.1755 39.2592C74.433 39.2592 73.8313 38.457 73.8313 37.467C73.8313 36.477 74.433 35.6748 75.1755 35.6748C75.9179 35.6748 76.5196 36.477 76.5196 37.467Z" fill="#4BD3D3"/>
<mask id="mask0_833_215" style="mask-type:alpha" maskUnits="userSpaceOnUse" x="0" y="0" width="83" height="70">
<rect width="83" height="70" fill="#D9D9D9"/>
</mask>
<g mask="url(#mask0_833_215)">
</g>
</svg>
