<svg width="64" height="47" viewBox="0 0 64 47" fill="none" xmlns="http://www.w3.org/2000/svg">
<path d="M32.4389 16H24.5611C23.1484 16 22 14.6583 22 12.9987C22 11.3438 23.1475 10 24.5611 10H32.4385C33.8511 10 35 11.3433 35 12.9987C35.0004 14.6573 33.8516 16 32.4389 16Z" fill="black"/>
<path d="M32.4719 22H23.5267C22.131 22 21 20.8814 21 19.4978C21 18.1213 22.131 17 23.5267 17H32.4715C33.8659 17 35 18.1212 35 19.4978C35.0004 20.8814 33.8664 22 32.4719 22Z" fill="black"/>
<path d="M32.3504 29H26.6491C25.1866 29 24 27.6569 24 26.0008C24 24.3441 25.1856 23 26.6491 23H32.3504C33.8116 23 35 24.3441 35 26.0008C35 27.6571 33.8116 29 32.3504 29Z" fill="black"/>
<path d="M50.3478 10.0407L44.5807 3.60511C44.3046 3.29824 43.9591 3.05921 43.572 2.90831C35.2022 -0.340354 35.204 -0.33799 34.1123 0.400343L27.2073 4.81002C25.983 5.5922 25.6328 7.20589 26.421 8.41628C27.2105 9.62573 28.8423 9.97233 30.0633 9.19153L34.2246 6.534C34.989 10.623 36.8368 17.1447 41.035 19.381C46.2387 22.1516 49.4859 20.8277 49.4859 20.8277V22.3075C49.4859 22.3075 46.0941 22.9757 42.9932 21.9144C39.1265 20.5932 36.2748 17.6168 36.2748 17.6168V29H43.8514C43.8514 29 46.0657 28.8593 47.7198 27.9622C49.1982 27.1583 50.0577 25.3766 50.0577 25.3766H64L63.9991 10.0417H50.3481L50.3478 10.0407Z" fill="black"/>
<path d="M34.9244 36.6836V30H29.0933V36.6836H18V47H46V36.6836H34.9244Z" fill="#4BD3D3"/>
<path d="M13 47H0V45H13V47Z" fill="black"/>
<path d="M13.9992 42L0 35.272L0.999614 33L15 39.7265L13.9992 42Z" fill="black"/>
<path d="M63 47H50V45H63V47Z" fill="black"/>
<path d="M50.9445 42L50 39.8086L59.0551 35L60 37.1899L50.9445 42Z" fill="black"/>
<path d="M13.4297 36L8 29.704L9.57025 28L15 34.297L13.4297 36Z" fill="black"/>
</svg>
